<svg xmlns="http://www.w3.org/2000/svg" xml:space="preserve" viewBox="0 0 512 512"><path d="M39.051 208.271h433.898v295.051H39.051z" style="fill:#ebebec"/><path d="M39.051 208.271h26.034v295.051H39.051z" style="fill:#d7d8d9"/><path d="M457.033 6.908A8.68 8.68 0 0 0 448.537 0H63.463a8.68 8.68 0 0 0-8.496 6.908l-41.95 201.364c0 19.171 15.541 34.712 34.712 34.712s34.712-15.541 34.712-34.712c0 19.171 15.541 34.712 34.712 34.712s34.712-15.541 34.712-34.712c0 19.171 15.541 34.712 34.712 34.712s34.712-15.541 34.712-34.712c0 19.171 15.541 34.712 34.712 34.712s34.712-15.541 34.712-34.712c0 19.171 15.541 34.712 34.712 34.712s34.712-15.541 34.712-34.712c0 19.171 15.541 34.712 34.712 34.712s34.712-15.541 34.712-34.712c0 19.171 15.541 34.712 34.712 34.712s34.712-15.541 34.712-34.712z" style="fill:#fddd85"/><path d="M63.463 0a8.68 8.68 0 0 0-8.496 6.908l-41.95 201.364c0 19.171 15.541 34.712 34.712 34.712s34.712-15.541 34.712-34.712L108.475 0z" style="fill:#e5563c"/><path d="M47.729 242.983c19.171 0 34.712-15.541 34.712-34.712H13.017c0 19.171 15.541 34.712 34.712 34.712" style="fill:#cf442b"/><path d="M108.475 0 82.441 208.271c0 19.171 15.541 34.712 34.712 34.712s34.712-15.541 34.712-34.712L169.22 0z" style="fill:#fddd85"/><path d="M117.153 242.983c19.171 0 34.712-15.541 34.712-34.712H82.441c0 19.171 15.541 34.712 34.712 34.712" style="fill:#fdd042"/><path d="m169.22 0-17.356 208.271c0 19.171 15.541 34.712 34.712 34.712s34.712-15.541 34.712-34.712V0z" style="fill:#e5563c"/><path d="M186.576 242.983c19.171 0 34.712-15.541 34.712-34.712h-69.424c0 19.171 15.542 34.712 34.712 34.712" style="fill:#cf442b"/><path d="M221.288 0v208.271c0 19.171 15.541 34.712 34.712 34.712s34.712-15.541 34.712-34.712V0z" style="fill:#fddd85"/><path d="M256 242.983c19.171 0 34.712-15.541 34.712-34.712h-69.424c0 19.171 15.541 34.712 34.712 34.712" style="fill:#fdd042"/><path d="M342.78 0h-52.068v208.271c0 19.171 15.541 34.712 34.712 34.712s34.712-15.541 34.712-34.712z" style="fill:#e5563c"/><path d="M325.424 242.983c19.171 0 34.712-15.541 34.712-34.712h-69.424c0 19.171 15.541 34.712 34.712 34.712" style="fill:#cf442b"/><path d="M403.525 0H342.78l17.356 208.271c0 19.171 15.541 34.712 34.712 34.712s34.712-15.541 34.712-34.712z" style="fill:#fddd85"/><path d="M394.847 242.983c19.171 0 34.712-15.541 34.712-34.712h-69.424c.001 19.171 15.542 34.712 34.712 34.712" style="fill:#fdd042"/><path d="M457.033 6.908A8.68 8.68 0 0 0 448.537 0h-45.012l26.034 208.271c0 19.171 15.541 34.712 34.712 34.712s34.712-15.541 34.712-34.712z" style="fill:#e5563c"/><path d="M464.271 242.983c19.171 0 34.712-15.541 34.712-34.712h-69.424c0 19.171 15.541 34.712 34.712 34.712" style="fill:#cf442b"/><path d="M63.463 0h45.012L82.441 208.271H13.017L54.967 6.908A8.68 8.68 0 0 1 63.463 0" style="fill:#e5563c"/><path d="M108.475 0h60.745l-17.356 208.271H82.441z" style="fill:#fddd85"/><path d="M169.22 0h52.068v208.271h-69.424zM448.537 0h-45.012l26.034 208.271h69.424L457.033 6.908A8.68 8.68 0 0 0 448.537 0" style="fill:#e5563c"/><path d="M403.525 0H342.78l17.356 208.271h69.423z" style="fill:#fddd85"/><path d="M342.78 0h-52.068v208.271h69.424z" style="fill:#e5563c"/><path d="M221.288 0h69.424v208.271h-69.424z" style="fill:#fddd85"/><path d="M221.288 260.339H82.441a8.68 8.68 0 0 0-8.678 8.678v225.627a8.68 8.68 0 0 0 8.678 8.678h138.847a8.68 8.68 0 0 0 8.678-8.678V269.017a8.68 8.68 0 0 0-8.678-8.678" style="fill:#74757b"/><path d="M99.797 494.644V269.017a8.68 8.68 0 0 1 8.678-8.678H82.441a8.68 8.68 0 0 0-8.678 8.678v225.627a8.68 8.68 0 0 0 8.678 8.678h26.034a8.68 8.68 0 0 1-8.678-8.678" style="fill:#606268"/><circle cx="195.254" cy="381.831" r="17.356" style="fill:#e1a527"/><circle cx="195.254" cy="381.831" r="8.678" style="fill:#fdd042"/><path d="M498.983 512H13.017a8.679 8.679 0 0 1 0-17.356h485.966a8.679 8.679 0 0 1 0 17.356" style="fill:#4c4e55"/><path d="M273.356 269.017h138.847v104.136H273.356z" style="fill:#cff6f1"/><path d="M381.831 373.153h30.372V342.78zM395.932 269.017 291.797 373.153h71.954l48.452-48.453v-55.683zM273.356 269.017v75.209l75.209-75.209z" style="fill:#6ac8b7"/><path d="M429.559 364.475h-8.678v-95.458a8.68 8.68 0 0 0-8.678-8.678H273.356a8.68 8.68 0 0 0-8.678 8.678v95.458H256a8.679 8.679 0 0 0 0 17.356h173.559a8.679 8.679 0 0 0 0-17.356m-147.525 0v-86.78h121.492v86.78z" style="fill:#88898e"/></svg>